<?xml version="1.0" encoding="UTF-8"?>
<svg id="_Слой_1" data-name="Слой_1" xmlns="http://www.w3.org/2000/svg" version="1.1" viewBox="0 0 201 201">
  <!-- Generator: Adobe Illustrator 29.6.1, SVG Export Plug-In . SVG Version: 2.1.1 Build 9)  -->
  <defs>
    <style>
      .st0 {
        fill: #fff;
      }
    </style>
  </defs>
  <path d="M208,0v201H0V0h208ZM112.79,2.01c-6.68-1.78-14.95-2.59-17.59,4.98,6.88-.31,13.9,2.19,17.59-4.98ZM95.2,2.01c-7.07.39-16.11-.81-16.55,7.99,5.93-1.21,14.66-.91,16.55-7.99ZM117.66,2.19c-2.09.3-3.95,2.44-5.39,3.81-1.2,2.79,3.78,1.37,4.81,1.55,5.64,1.02,8.25,3.2,13.29-2.05.04-1.26-11.04-3.55-12.71-3.31ZM77.61,5.01c-5.92,1.38-13.86,1.86-15.49,8.51,1.27,1.58,1.28,1.45,3.09,1.03,5.14-1.19,12.53-3.37,12.4-9.54ZM129.35,11c-30.57-4.32-42.9-3.22-71.4,8,1.04-1.31,5.82-9.56.74-7.79-.87.3-9.4,4.65-9.79,5.04-1.46,1.47-1.32,4.79-1.29,6.75l10.34-3.99c-2.65,3.35-11.53,7.66-15.52,10,.32-.45,2.59-3.66,2.66-3.89.57-2.01.51-4.06.43-6.11-5.46,4.14-13.44,7.13-11.37,14.99,3.05-1.15,5.28-3.24,8.27-4.99-2.95,4.15-6.05,5.76-9.34,9.47-73.11,82.41,27.9,196.43,124.53,138.34,3.73-2.24,7.08-6.3,11.06-7.81-.13.15.25,1.14-.26,1.72-2.65,3.06-7.85,3.22-5.94,10.28,4.71-3.64,12.27-6.28,10.33-13-.25-.27-3.35.7-4.13,1,2.44-2.85,9.69-11.7,12.42-13-2.36,3.75-8.69,9.46-4.64,13,2.38.47,10.48-9.88,7.26-13.03-1.16-1.47-1.4-.55-2.62.04,1.39-2.21,2.95-5.57,4.15-7.99,2.36.29-.29,3.64.15,5.29.31,1.18,1.65,1.83,2.42,2.68,3.08-4.92,10.68-11.65,2.53-15.57l2.14-6.4c1.91.12.67,3.13,1.55,4.98.56,1.18,2.13,2.28,3.61,2.01-.32-3.37,6.28-13.05,1.55-14.99-3.25-1.33-1.84,2.04-3.6,1.99l2.07-9.99c1.99.29.84,3.6,1.98,5.32.38.58,2.98,1.8,3.17,1.67.42-3.85,3.41-10.31,1.13-13.58-1.68-2.41-5.65-1.68-4.21-6.42,3.4-.67,2.26,4.99,6.21,2.49l-.17-11.83c-5.03-3.92-8.59-2.18-7.07-10.66,1.97.91,1.08,3.31,3.55,5.06.93.66,2.99,1.79,3.7.42l-2.59-11.49c-1.53-2.04-4.16-2.8-6.6-2.14l-.66-4.85,6.73,2.99c-1.89-5.76-3.59-17.42-12.38-12.99l-1.59-6c12.91,10.1,5.57-5.15,1.26-8.71-3.72-3.07-7.57.98-7.96.7.19-3.05-5.35-4.58-3.65-6.99.46,2.87,10.16,4.62,8.79,1.51-4.88-4.01-6.49-11.35-14.42-9.42l-.57,2.91c-2.63-3.8-8.76-6.22-10.87-10,1.1.59,14.73,9.41,14.47,4.5-4.72-4.12-8.17-10.82-15.5-7.49-.17,1.17.51,2.04,1.04,2.99-3.85-2.06-7.91-3.82-11.38-6.5l12.41,1.5c.48-2.08-1.13-2.27-2.35-3.22-4.91-3.79-12.32-8.47-15.81-.72-2.06-1.86-14.82-4.78-14.94-6.06,5.52.78,15.94,5.53,17.59-.99-4.33-.98-18.48-8.17-17.59.99ZM32.07,31c-1.37-1.52-14.19,11.69-7.76,14.97,4.12-4.57,9.31-8.23,7.76-14.97ZM14.5,60c5.06-3.57,9.11-9.87,6.18-16-5.05,3.39-8.85,10.19-6.18,16ZM10.36,59c-1.15,5.63-7.31,11.08-1.55,15.99,2.17.5,5.1-9.25,5.18-10.89.11-2.17-1.59-4.25-3.63-5.1ZM7.06,76.21c-.88-.49-1.96-.13-2.9-.21-.9,5.64-3.47,12.96,3.08,16-.62-3.93,4.14-13.39-.17-15.79ZM4.93,93.25c-4.5-5.01-4.42,7.55-3.88,10.23s3.5,4.43,6.18,4.52c-1.18-3.48-.22-12.42-2.3-14.75ZM9.31,124c-.87-4.79-.41-14.39-7.23-13.99.47,5.31.17,13.53,7.23,13.99ZM11.11,128.27l-5.93-2.26c1.05,5.77,2.63,14.2,10.34,13.99l-4.41-11.73ZM17.32,143.26c-.7-.57-5.59-1.57-5.93-1.26,2.28,5.5,4.8,13.99,12.41,11.98-2.42-1.75-5.2-9.7-6.48-10.73ZM34.14,166.99c.79-.64-6.13-8.47-6.83-8.89-2.04-1.24-4.32-1.21-6.61-1.1,2.49,5.29,6.5,11.52,13.44,9.99ZM46.37,175.16c-.45-.74-12.1-8.43-14.29-5.14l8.77,8.08c2.68,1.34,7.49.31,5.52-2.94ZM159.36,178c-2.85.58-15.74,7.52-12.41,10.99,5.68-1.23,13.41-4.27,12.41-10.99ZM50.21,179.42c-1.13-.05-4.67,1.21-4.66,2.08,4.59,2.79,11.72,9.05,16.52,4,0-.66-10.65-6.03-11.86-6.08ZM144.87,186.01c-5.6,1.36-14.92,3.04-14.48,9.99,5.65-1.6,13.57-3.1,14.48-9.99ZM61.06,190.99c5.94.09,11.66,6.63,16.53.51,0-.98-16.65-8.45-16.53-.51ZM128.31,191c-3.43,1.17-15.6,1.97-15.49,6.5.05,2.01,3.01.9,3.92.83,5.68-.46,11.53-.63,11.57-7.33ZM82.48,192.18c-1.86.26-3.6,2.04-4.85,3.32.01,1.27,15.12,4.56,16.53-.01.58-2.7-9.96-3.55-11.68-3.3ZM111.76,194.01c-5.63.38-14.99-2.11-16.55,4.99,5.76-.58,15.02,2.59,16.55-4.99Z"/>
  <path class="st0" d="M129.35,11c-.89-9.16,13.26-1.97,17.59-.99-1.65,6.52-12.07,1.77-17.59.99.12,1.28,12.89,4.21,14.94,6.06,3.49-7.76,10.9-3.08,15.81.72,1.22.94,2.83,1.13,2.35,3.22l-12.41-1.5c3.47,2.69,7.53,4.45,11.38,6.5-.53-.95-1.2-1.82-1.04-2.99,7.33-3.33,10.78,3.37,15.5,7.49.26,4.91-13.37-3.91-14.47-4.5,2.11,3.78,8.24,6.19,10.87,10l.57-2.91c7.93-1.93,9.54,5.42,14.42,9.42,1.37,3.11-8.33,1.36-8.79-1.51-1.7,2.42,3.84,3.94,3.65,6.99.39.28,4.25-3.77,7.96-.7,4.31,3.56,11.64,18.8-1.26,8.71l1.59,6c8.79-4.42,10.49,7.24,12.38,12.99l-6.73-2.99.66,4.85c2.43-.65,5.07.1,6.6,2.14l2.59,11.49c-.71,1.37-2.77.23-3.7-.42-2.47-1.74-1.58-4.14-3.55-5.06-1.53,8.48,2.04,6.73,7.07,10.66l.17,11.83c-3.95,2.5-2.81-3.16-6.21-2.49-1.43,4.74,2.53,4.01,4.21,6.42,2.28,3.27-.7,9.73-1.13,13.58-.19.13-2.79-1.1-3.17-1.67-1.14-1.72,0-5.03-1.98-5.32l-2.07,9.99c1.76.05.36-3.32,3.6-1.99,4.73,1.94-1.87,11.62-1.55,14.99-1.47.28-3.05-.83-3.61-2.01-.88-1.85.36-4.87-1.55-4.98l-2.14,6.4c8.15,3.92.55,10.65-2.53,15.57-.77-.85-2.11-1.5-2.42-2.68-.44-1.65,2.21-5.01-.15-5.29-1.2,2.42-2.76,5.78-4.15,7.99,1.22-.58,1.45-1.51,2.62-.04,3.22,3.15-4.88,13.5-7.26,13.03-4.05-3.53,2.28-9.25,4.64-13-2.73,1.3-9.98,10.15-12.42,13,.78-.3,3.89-1.27,4.13-1,1.94,6.71-5.62,9.35-10.33,13-1.91-7.06,3.29-7.22,5.94-10.28.51-.58.13-1.57.26-1.72-3.98,1.51-7.33,5.57-11.06,7.81C60.99,234.9-40.02,120.88,33.09,38.47c3.29-3.71,6.39-5.32,9.34-9.47-2.99,1.75-5.22,3.85-8.27,4.99-2.07-7.87,5.91-10.86,11.37-14.99.08,2.05.14,4.1-.43,6.11-.07.23-2.34,3.44-2.66,3.89,3.99-2.34,12.87-6.65,15.52-10l-10.34,3.99c-.02-1.95-.16-5.28,1.29-6.75.38-.39,8.92-4.74,9.79-5.04,5.08-1.77.3,6.48-.74,7.79,28.5-11.22,40.83-12.32,71.4-8ZM144.88,97h18.11c4.2,0,15.48,4.9,18.11,8.5,8.37,11.44-5.33,28.1-17.1,31.49-4.12,1.19,3.56-7.58,4.15-8.99,1.1-2.62,1.88-5.11,1.55-7.99l-4.3,9.33-5.54,5.65-4.06-10.05-8.86-3.93c16.24,12.59,6.34,47.65-10.98,54.88-8,3.34-19.23,3.73-25.06-3.51,6.47-15.14-5.81-30.73-22.95-28.36,2.97,6.17,14.31,25.88,6.15,30.44-10.28,5.75-32.44-5.67-38.23-14.95l5.16.5-5.15-3.49c6.21-3.02,5.57-3.7,5.14-10.5-6.8,9.81-20.48,7.37-24.82-3,2.65.28,4.97.92,7.71,1.04,1.22.06,5.73.7,5.74-1.04-8.61,1.03-20.95-4.71-22.76-13,15.78,5.16,20.13-8.4,30-16.51-1.94-1.72-3.87,3.44-5.72.54-1.52-2.38.48-10.15-2.16-13.54l7.88-10.48c-1.81-1.58-6.03,5.5-7.2,6.53-5.56,4.88-12.6,7.4-19.32,10.38l-1.92-1.92-5.7,3,18.81-27.31c3.49-7.14,8.27-26.41,4.02-33.25-1.29-2.07-3.92-2.75-6.28-2.43l1.06,1.98c-5.64-.23-7.98,7.96-10.91,11.05-.84.88-2.51-.01-3.06.91-43.05,72.16,35.23,153.9,113.99,121.23,56.7-23.52,70.83-95.72,28.81-139.19-6.19-6.4-15.41-12.73-22.52-16.22-7.1-3.49-14.14-6.06-21.92-7.8-1.59,3.98-10.42.3-14.57.05-22.43-1.33-46.9,7.4-63.62,21.49,9.02-.98,18.51-1.37,24.67,6.15l3.25,8.34c.17-13.09-7.03-14.46-18.09-16.02-1.4-.2-3.37-.57-1.56-1.97,15.55-3.51,38.67.77,37.4,19.86,9.56,3.98,19.73,3.81,29.86,2.12l-9.31-.98-1.03-11-18.62,1.98c-.57-2.66.7-1.72,2.04-2.48,8.5-4.84,15.81-5.2,15.59-17.47,13.04-1.06,42.93,2.35,33.07,20.94,4.02,1.19,9.43-6.87,10.05-7.02,9.24-2.21,27.74,10.85,16.25,20.94l-8.7,8.08c2.87-1.38,15.07,8.48,15.4,9.7-1.49,9.68-12.93,15.18-22.19,16.27-3.85.46,1.35-4.4,2.18-5.91.88-1.61,1.76-3.13,1.5-5.05l-5.7,7.99-2.55-5.52-15.54-1.47,12.37,3.03-2.03,7.96ZM99.34,74.01l-8.6.84-4.84-5.85c2.47,6.78-4.22,19.71-12.42,17.99-.12,5.56-.41,11.7,3.08,16.52l13.47,1.47-10.41-4.43c-8.77-6.73,6.74-21.3,13.27-24.3,2.17-1,5.6-.54,6.45-2.25ZM107.62,104.01l-15.51,2.98,5.5,2.88,10.01-5.86ZM93.13,116.01c-4.37.07-9.23-1-12.41,2.49l2.14,1.05-1.1,3.45c2.42-.41,3.51-4.29,4.85-5.06,2.22-1.27,5.75,0,6.52-1.93ZM122.42,140.71c-.57-.6-.89-1.42-1.05-2.22,12.54-15.87.68-23.15-15.81-15.48.99,2.35,5.77-.67,7.83-.93,14.23-1.75,12.69,6.71,5.92,14.96-6.19-.68-10.9-2.84-17.41-2.07-3.66.44-5.41,2.54-8.76,3.01l1.02-4.93c-7.57-2.61-6.87,3.65-6.19,8.94,17.35-9.15,30.34-4.15,42.94,8.98,3.02-3.3,8.02-5.95,7.75-10.98-2.38,1.46-3.44,5.74-6.77,6.05-1.22.11-8.52-4.35-9.46-5.34ZM64.17,161.99c10.42,3.53,26.36,7.81,20.68-8.98-1.98.92-.71,4.74-1.49,7.05-1.93,5.75-11.64,2.2-16.04,1.39-1.07-.2-3.4-1.31-3.15.55Z"/>
  <path class="st0" d="M117.66,2.19c1.67-.24,12.75,2.05,12.71,3.31-5.04,5.25-7.65,3.08-13.29,2.05-1.04-.19-6.01,1.24-4.81-1.55,1.44-1.38,3.3-3.51,5.39-3.81Z"/>
  <path class="st0" d="M112.79,2.01c-3.69,7.16-10.71,4.66-17.59,4.98,2.64-7.57,10.91-6.76,17.59-4.98Z"/>
  <path class="st0" d="M95.2,2.01c-1.88,7.08-10.62,6.78-16.55,7.99.43-8.8,9.48-7.6,16.55-7.99Z"/>
  <path class="st0" d="M77.61,5.01c.14,6.16-7.26,8.35-12.4,9.54-1.81.42-1.82.55-3.09-1.03,1.63-6.65,9.57-7.12,15.49-8.51Z"/>
  <path class="st0" d="M4.93,93.25c2.09,2.33,1.13,11.27,2.3,14.75-2.68-.09-5.67-1.93-6.18-4.52s-.62-15.24,3.88-10.23Z"/>
  <path class="st0" d="M14.5,60c-2.67-5.81,1.13-12.6,6.18-16,2.93,6.13-1.12,12.43-6.18,16Z"/>
  <path class="st0" d="M10.36,59c2.03.86,3.73,2.93,3.63,5.1-.08,1.64-3.01,11.39-5.18,10.89-5.76-4.91.4-10.37,1.55-15.99Z"/>
  <path class="st0" d="M32.07,31c1.55,6.75-3.64,10.4-7.76,14.97-6.43-3.28,6.38-16.49,7.76-14.97Z"/>
  <path class="st0" d="M11.11,128.27l4.41,11.73c-7.71.21-9.29-8.22-10.34-13.99l5.93,2.26Z"/>
  <path class="st0" d="M7.06,76.21c4.32,2.4-.45,11.86.17,15.79-6.55-3.04-3.98-10.36-3.08-16,.94.08,2.03-.27,2.9.21Z"/>
  <path class="st0" d="M46.37,175.16c1.97,3.25-2.84,4.28-5.52,2.94l-8.77-8.08c2.19-3.29,13.84,4.4,14.29,5.14Z"/>
  <path class="st0" d="M144.87,186.01c-.9,6.89-8.83,8.39-14.48,9.99-.44-6.95,8.88-8.63,14.48-9.99Z"/>
  <path class="st0" d="M61.06,190.99c-.11-7.95,16.54-.47,16.53.51-4.87,6.13-10.6-.41-16.53-.51Z"/>
  <path class="st0" d="M82.48,192.18c1.72-.25,12.26.6,11.68,3.3-1.41,4.57-16.52,1.28-16.53.01,1.25-1.28,2.99-3.05,4.85-3.32Z"/>
  <path class="st0" d="M111.76,194.01c-1.52,7.58-10.79,4.41-16.55,4.99,1.56-7.1,10.92-4.61,16.55-4.99Z"/>
  <path class="st0" d="M128.31,191c-.05,6.7-5.89,6.87-11.57,7.33-.91.07-3.87,1.18-3.92-.83-.1-4.53,12.06-5.33,15.49-6.5Z"/>
  <path class="st0" d="M34.14,166.99c-6.94,1.53-10.95-4.7-13.44-9.99,2.29-.11,4.57-.14,6.61,1.1.7.42,7.62,8.25,6.83,8.89Z"/>
  <path class="st0" d="M17.32,143.26c1.28,1.03,4.07,8.98,6.48,10.73-7.61,2.01-10.13-6.49-12.41-11.98.34-.31,5.23.69,5.93,1.26Z"/>
  <path class="st0" d="M159.36,178c1,6.72-6.73,9.76-12.41,10.99-3.33-3.47,9.56-10.41,12.41-10.99Z"/>
  <path class="st0" d="M50.21,179.42c1.21.05,11.86,5.42,11.86,6.08-4.8,5.05-11.93-1.21-16.52-4-.02-.87,3.52-2.13,4.66-2.08Z"/>
  <path class="st0" d="M9.31,124c-7.06-.46-6.76-8.68-7.23-13.99,6.82-.4,6.36,9.2,7.23,13.99Z"/>
  <path d="M144.88,97l2.03-7.96-12.37-3.03,15.54,1.47,2.55,5.52,5.7-7.99c.26,1.92-.62,3.44-1.5,5.05-.83,1.51-6.03,6.37-2.18,5.91,9.26-1.1,20.69-6.59,22.19-16.27-.32-1.22-12.52-11.08-15.4-9.7l8.7-8.08c11.49-10.09-7.01-23.16-16.25-20.94-.62.15-6.03,8.21-10.05,7.02,9.86-18.59-20.03-22-33.07-20.94.21,12.27-7.1,12.63-15.59,17.47-1.34.76-2.61-.18-2.04,2.48l18.62-1.98,1.03,11,9.31.98c-10.14,1.68-20.31,1.85-29.86-2.12,1.27-19.09-21.85-23.37-37.4-19.86-1.8,1.4.17,1.77,1.56,1.97,11.06,1.56,18.26,2.93,18.09,16.02l-3.25-8.34c-6.17-7.51-15.65-7.13-24.67-6.15,16.72-14.09,41.2-22.82,63.62-21.49,4.15.25,12.98,3.93,14.57-.05,7.78,1.74,14.81,4.31,21.92,7.8,7.12,3.5,16.34,9.82,22.52,16.22,42.02,43.47,27.89,115.66-28.81,139.19C61.64,212.85-16.64,131.1,26.4,58.94c.55-.92,2.22-.02,3.06-.91,2.93-3.09,5.27-11.28,10.91-11.05l-1.06-1.98c2.36-.32,4.99.35,6.28,2.43,4.25,6.84-.53,26.11-4.02,33.25l-18.81,27.31,5.7-3,1.92,1.92c6.72-2.98,13.76-5.5,19.32-10.38,1.18-1.03,5.39-8.11,7.2-6.53l-7.88,10.48c2.64,3.39.64,11.16,2.16,13.54,1.85,2.9,3.78-2.25,5.72-.54-9.87,8.11-14.22,21.67-30,16.51,1.81,8.29,14.15,14.04,22.76,13,0,1.74-4.51,1.09-5.74,1.04-2.73-.12-5.05-.76-7.71-1.04,4.34,10.36,18.02,12.81,24.82,3,.42,6.8,1.06,7.48-5.14,10.5l5.15,3.49-5.16-.5c5.79,9.28,27.95,20.7,38.23,14.95,8.15-4.56-3.19-24.26-6.15-30.44,17.14-2.37,29.42,13.23,22.95,28.36,5.83,7.25,17.06,6.85,25.06,3.51,17.33-7.23,27.22-42.29,10.98-54.88l8.86,3.93,4.06,10.05,5.54-5.65,4.3-9.33c.34,2.88-.44,5.37-1.55,7.99-.6,1.41-8.27,10.18-4.15,8.99,11.77-3.39,25.47-20.04,17.1-31.49-2.63-3.6-13.91-8.5-18.11-8.5h-18.11ZM100.37,52.99c2.64.2,9.79,2.5,8.27-2.48-1.06-3.47-10.3.81-8.27,2.48Z"/>
  <path d="M122.42,140.71c.94.99,8.25,5.46,9.46,5.34,3.33-.31,4.39-4.59,6.77-6.05.27,5.03-4.73,7.68-7.75,10.98-12.59-13.13-25.59-18.13-42.94-8.98-.68-5.29-1.39-11.55,6.19-8.94l-1.02,4.93c3.35-.47,5.1-2.58,8.76-3.01,6.51-.78,11.22,1.39,17.41,2.07,6.77-8.25,8.32-16.72-5.92-14.96-2.06.25-6.84,3.28-7.83.93,16.49-7.67,28.35-.39,15.81,15.48.16.8.48,1.62,1.05,2.22Z"/>
  <path d="M99.34,74.01c-.86,1.71-4.28,1.25-6.45,2.25-6.53,3-22.04,17.57-13.27,24.3l10.41,4.43-13.47-1.47c-3.5-4.81-3.2-10.96-3.08-16.52,8.2,1.72,14.89-11.21,12.42-17.99l4.84,5.85,8.6-.84Z"/>
  <path d="M64.17,161.99c-.24-1.86,2.09-.75,3.15-.55,4.4.81,14.1,4.36,16.04-1.39.78-2.3-.49-6.12,1.49-7.05,5.68,16.79-10.26,12.51-20.68,8.98Z"/>
  <polygon points="107.62 104.01 97.61 109.87 92.11 106.99 107.62 104.01"/>
  <path d="M93.13,116.01c-.77,1.94-4.3.66-6.52,1.93-1.34.77-2.43,4.65-4.85,5.06l1.1-3.45-2.14-1.05c3.17-3.5,8.04-2.42,12.41-2.49Z"/>
  <path class="st0" d="M100.37,52.99c-2.03-1.68,7.22-5.96,8.27-2.48,1.52,4.98-5.64,2.68-8.27,2.48Z"/>
</svg>